<svg width="448" height="480" viewBox="0 0 448 480" fill="none" xmlns="http://www.w3.org/2000/svg">
<path d="M199.84 360.96L154.56 406.08C145.529 415.071 133.304 420.118 120.56 420.118C107.816 420.118 95.5914 415.071 86.56 406.08L41.28 360.8C22.72 342.24 22.72 311.68 41.28 292.96L86.56 247.68L199.84 360.96ZM414.72 236.32L211.04 32.8C209.315 30.9876 207.177 29.6191 204.809 28.8112C202.441 28.0033 199.913 27.7799 197.44 28.16C192.32 28.96 188 32 185.6 36.48L93.92 209.76L238.08 353.92L410.88 261.76C415.36 259.52 418.4 255.04 419.2 250.08C420 244.96 418.24 240 414.72 236.32ZM64 428.64L18.72 383.36C12.32 376.96 7.35998 369.92 3.67998 362.24C-4.32002 384.64 0.799986 410.72 18.72 428.64C27.2207 437.241 37.9977 443.239 49.7869 445.931C61.576 448.623 73.8885 447.898 85.28 443.84C77.3327 440.09 70.1246 434.942 64 428.64ZM250.72 411.68L222.56 383.52L177.12 428.8C173.28 432.64 169.12 436 164.64 438.88L194.08 468.32C201.6 475.84 211.68 480 222.4 480C233.12 480 243.2 475.84 250.72 468.32C266.24 452.64 266.24 427.36 250.72 411.68ZM304 48V16C304 11.7565 302.314 7.68687 299.314 4.68629C296.313 1.68571 292.243 0 288 0C283.757 0 279.687 1.68571 276.686 4.68629C273.686 7.68687 272 11.7565 272 16V48C272 52.2435 273.686 56.3131 276.686 59.3137C279.687 62.3143 283.757 64 288 64C292.243 64 296.313 62.3143 299.314 59.3137C302.314 56.3131 304 52.2435 304 48ZM448 160C448 155.757 446.314 151.687 443.314 148.686C440.313 145.686 436.243 144 432 144H400C395.757 144 391.687 145.686 388.686 148.686C385.686 151.687 384 155.757 384 160C384 164.243 385.686 168.313 388.686 171.314C391.687 174.314 395.757 176 400 176H432C436.243 176 440.313 174.314 443.314 171.314C446.314 168.313 448 164.243 448 160ZM363.312 107.312L395.312 75.312C396.84 73.836 398.059 72.0705 398.898 70.1185C399.736 68.1664 400.178 66.0669 400.196 63.9424C400.214 61.818 399.81 59.7111 399.005 57.7447C398.201 55.7784 397.013 53.992 395.51 52.4897C394.008 50.9874 392.222 49.7993 390.255 48.9949C388.289 48.1904 386.182 47.7855 384.058 47.804C381.933 47.8225 379.834 48.2638 377.882 49.1024C375.929 49.9409 374.164 51.1598 372.688 52.688L340.688 84.688C339.16 86.164 337.941 87.9295 337.102 89.8815C336.264 91.8336 335.822 93.9331 335.804 96.0576C335.785 98.182 336.19 100.289 336.995 102.255C337.799 104.222 338.987 106.008 340.49 107.51C341.992 109.013 343.778 110.201 345.745 111.005C347.711 111.81 349.818 112.214 351.942 112.196C354.067 112.178 356.166 111.736 358.118 110.898C360.071 110.059 361.836 108.84 363.312 107.312Z" fill="black"/>
</svg>
