<svg width="1006" height="527" viewBox="0 0 1006 527" fill="none" xmlns="http://www.w3.org/2000/svg">
<path fill-rule="evenodd" clip-rule="evenodd" d="M1006 157.054V369.999C1006 392.234 972.198 410.316 930.747 410.316H543.71C524.493 410.316 508.909 418.7 508.909 429V498.416C508.909 510.561 496.232 520.539 475.109 524.94C454.021 529.335 432.074 526.599 416.762 517.666L14.0866 282.746C-4.69553 271.789 -4.69553 255.202 14.0866 244.245L416.762 9.32553C426.806 3.46696 440.227 0 455.123 0C461.98 0 468.728 0.784389 475.107 2.11221C496.267 6.51351 508.907 16.4722 508.907 28.6367V97.9924C508.907 108.292 524.491 116.677 543.708 116.677H930.742C972.265 116.677 1006 134.795 1006 157.054Z" fill="black"/>
</svg>
