<svg width="448" height="480" viewBox="0 0 448 480" fill="none" xmlns="http://www.w3.org/2000/svg">
<path d="M199.828 360.96L154.548 406.08C145.516 415.071 133.291 420.118 120.548 420.118C107.804 420.118 95.5791 415.071 86.5477 406.08L41.2677 360.8C22.7077 342.24 22.7077 311.68 41.2677 292.96L86.5477 247.68L199.828 360.96ZM414.708 236.32L211.028 32.8C209.303 30.9876 207.165 29.6191 204.797 28.8112C202.429 28.0033 199.901 27.7799 197.428 28.16C192.308 28.96 187.988 32 185.588 36.48L93.9077 209.76L238.068 353.92L410.868 261.76C415.348 259.52 418.388 255.04 419.188 250.08C419.988 244.96 418.228 240 414.708 236.32ZM63.9877 428.64L18.7077 383.36C12.3077 376.96 7.34766 369.92 3.66766 362.24C-4.33234 384.64 0.787657 410.72 18.7077 428.64C27.2083 437.241 37.9853 443.239 49.7745 445.931C61.5637 448.623 73.8762 447.898 85.2677 443.84C77.3203 440.09 70.1122 434.942 63.9877 428.64ZM250.708 411.68L222.548 383.52L177.108 428.8C173.268 432.64 169.108 436 164.628 438.88L194.068 468.32C201.588 475.84 211.668 480 222.388 480C233.108 480 243.188 475.84 250.708 468.32C266.228 452.64 266.228 427.36 250.708 411.68ZM303.988 48V16C303.988 11.7565 302.302 7.68687 299.301 4.68629C296.301 1.68571 292.231 0 287.988 0C283.744 0 279.675 1.68571 276.674 4.68629C273.673 7.68687 271.988 11.7565 271.988 16V48C271.988 52.2435 273.673 56.3131 276.674 59.3137C279.675 62.3143 283.744 64 287.988 64C292.231 64 296.301 62.3143 299.301 59.3137C302.302 56.3131 303.988 52.2435 303.988 48ZM447.988 160C447.988 155.757 446.302 151.687 443.301 148.686C440.301 145.686 436.231 144 431.988 144H399.988C395.744 144 391.675 145.686 388.674 148.686C385.673 151.687 383.988 155.757 383.988 160C383.988 164.243 385.673 168.313 388.674 171.314C391.675 174.314 395.744 176 399.988 176H431.988C436.231 176 440.301 174.314 443.301 171.314C446.302 168.313 447.988 164.243 447.988 160ZM363.3 107.312L395.3 75.312C396.828 73.836 398.047 72.0705 398.885 70.1185C399.724 68.1664 400.165 66.0669 400.184 63.9424C400.202 61.818 399.797 59.7111 398.993 57.7447C398.188 55.7784 397 53.992 395.498 52.4897C393.996 50.9874 392.209 49.7993 390.243 48.9949C388.277 48.1904 386.17 47.7855 384.045 47.804C381.921 47.8225 379.821 48.2638 377.869 49.1024C375.917 49.9409 374.152 51.1598 372.676 52.688L340.676 84.688C339.147 86.164 337.929 87.9295 337.09 89.8815C336.251 91.8336 335.81 93.9331 335.792 96.0576C335.773 98.182 336.178 100.289 336.982 102.255C337.787 104.222 338.975 106.008 340.477 107.51C341.98 109.013 343.766 110.201 345.732 111.005C347.699 111.81 349.806 112.214 351.93 112.196C354.055 112.178 356.154 111.736 358.106 110.898C360.058 110.059 361.824 108.84 363.3 107.312Z" fill="black"/>
</svg>
