<svg width="470" height="470" viewBox="0 0 470 470" fill="none" xmlns="http://www.w3.org/2000/svg">
<path d="M234.667 0C188.254 0 142.884 13.763 104.293 39.5485C65.7022 65.334 35.6244 101.984 17.863 144.864C0.101678 187.743 -4.54551 234.927 4.50916 280.448C13.5638 325.969 35.9137 367.782 68.7324 400.601C101.551 433.42 143.365 455.77 188.886 464.824C234.406 473.879 281.59 469.232 324.47 451.47C367.35 433.709 404 403.631 429.785 365.04C455.571 326.45 469.333 281.079 469.333 234.667C469.333 172.429 444.61 112.741 400.601 68.7323C356.593 24.7237 296.904 0 234.667 0ZM139.275 44.0533L152 52.8853C154.815 54.8463 157.095 57.4787 158.635 60.544L161.835 66.944C163.532 70.3454 166.144 73.2062 169.378 75.2054C172.611 77.2045 176.337 78.2628 180.139 78.2613H202.891C208.32 78.2613 213.526 80.4179 217.365 84.2567C221.204 88.0954 223.36 93.3019 223.36 98.7307V99.136C223.363 102.938 222.305 106.665 220.306 109.898C218.306 113.132 215.445 115.744 212.043 117.44L157.461 144.747C156.698 145.119 155.96 145.543 155.253 146.016L127.317 164.64C124.353 166.62 121.952 169.337 120.352 172.523L116.203 180.864C114.769 183.7 114.021 186.833 114.021 190.011C114.021 193.188 114.769 196.322 116.203 199.157C118.121 203.003 118.781 207.355 118.09 211.597C117.399 215.839 115.392 219.756 112.352 222.795L111.744 223.413C108.517 226.641 104.302 228.697 99.7716 229.254C95.241 229.81 90.6544 228.836 86.7414 226.485L51.0401 205.045C46.8523 202.528 43.7012 198.598 42.1548 193.963L33.3761 167.616C32.9708 167.616 32.6828 167.488 32.3094 167.477C50.213 113.794 88.6819 69.4062 139.275 44.0533ZM256.864 310.645C256.866 312.128 256.628 313.601 256.16 315.008L246.72 343.317C246.046 345.351 244.907 347.199 243.392 348.715L226.325 365.781C224.394 367.708 223.08 370.166 222.549 372.843L213.515 417.984C213.097 420.039 212.216 421.972 210.939 423.636C209.662 425.299 208.022 426.65 206.144 427.584L198.741 431.296C196.146 432.584 193.212 433.027 190.352 432.562C187.491 432.097 184.849 430.748 182.795 428.704L169.077 414.987C168.029 413.933 167.154 412.719 166.485 411.392L157.771 393.963C156.819 392.043 156.323 389.929 156.32 387.787V343.776C156.315 341.211 155.599 338.697 154.251 336.514C152.902 334.332 150.975 332.566 148.683 331.413L137.248 325.707C135.09 324.636 133.251 323.018 131.915 321.013L113.92 294.016C112.405 291.749 111.596 289.084 111.595 286.357V276.757C111.602 274.194 112.319 271.682 113.667 269.502C115.015 267.321 116.942 265.557 119.232 264.405L129.824 259.072C132.5 257.74 134.668 255.572 136 252.896L141.333 242.304C142.483 240.018 144.242 238.095 146.416 236.747C148.59 235.4 151.095 234.679 153.653 234.667H172.917C174.732 234.665 176.529 235.022 178.205 235.715C179.882 236.409 181.405 237.426 182.688 238.709L185.771 241.792C188.364 244.381 191.877 245.838 195.541 245.845H198.4C202.069 245.859 205.582 247.327 208.171 249.926C210.76 252.525 212.213 256.044 212.213 259.712C212.219 262.275 212.935 264.785 214.281 266.966C215.628 269.146 217.552 270.911 219.84 272.064L249.28 286.773C251.57 287.927 253.495 289.694 254.842 291.876C256.188 294.059 256.903 296.572 256.907 299.136L256.864 310.645ZM313.077 107.883C314.029 105.578 315.425 103.484 317.184 101.717L336.288 82.624C337.728 81.1857 339.388 79.9866 341.205 79.072L361.259 69.0453C363.011 68.2097 364.882 67.6519 366.805 67.392C389.84 85.5523 408.894 108.255 422.784 134.091H413.355C408.327 134.091 403.505 132.096 399.947 128.544L397.643 126.24C394.086 122.685 389.264 120.686 384.235 120.683H369.749C366.787 120.674 363.865 121.361 361.216 122.688L342.421 132.096C339.772 133.418 336.849 134.101 333.888 134.091H330.507C327.39 134.088 324.323 133.318 321.575 131.849C318.827 130.379 316.483 128.254 314.752 125.663C313.02 123.072 311.954 120.094 311.647 116.993C311.34 113.892 311.802 110.763 312.992 107.883H313.077ZM393.493 376.736L392.107 373.333C391.351 371.052 390.965 368.665 390.965 366.261V341.632C390.964 338.163 390.157 334.741 388.608 331.637L370.965 296.373C369.416 293.269 368.609 289.848 368.608 286.379V283.115C368.608 279.307 367.634 275.562 365.78 272.236C363.925 268.91 361.252 266.113 358.013 264.111C354.774 262.108 351.077 260.966 347.273 260.794C343.469 260.622 339.684 261.424 336.277 263.125L328.629 266.955C325.529 268.502 322.111 269.309 318.645 269.312H317.675C312.984 269.304 308.413 267.823 304.609 265.079C300.804 262.335 297.957 258.465 296.469 254.016L291.541 239.221C290.78 236.941 290.391 234.553 290.389 232.149V214.219C290.389 210.54 291.297 206.918 293.033 203.674C294.769 200.431 297.28 197.666 300.341 195.627L320.693 182.059C322.824 180.637 325.184 179.594 327.669 178.976L362.293 170.315C366.422 169.284 370.758 169.451 374.795 170.795L398.688 178.763C400.972 179.523 403.363 179.912 405.771 179.915H440.64C449.898 214.045 450.432 249.954 442.194 284.344C433.956 318.735 417.21 350.505 393.493 376.736Z" fill="black"/>
</svg>
