<svg width="1795" height="300" viewBox="0 0 1795 300" fill="none" xmlns="http://www.w3.org/2000/svg">
<path d="M450 154H474L463 124H461L450 154ZM441 190L436 202C431 214 423 222 412 222C399 222 390 213 390 202C390 196 395 184 395 184L427 100C433 85 442 76 462 76C482 76 491.2 85 497 100L529 184C529 184 534 196 534 202C534 213 525 222 512 222C501 222 493 214 488 202L483 190H441ZM683.945 140V160C683.945 194 657.945 220 614.945 220H579.945C565.945 220 557.945 212 557.945 200V100C557.945 88 565.945 80 579.945 80H614.945C657.945 80 683.945 106 683.945 140ZM614.945 116H601.945V184H614.945C628.945 184 638.945 174 638.945 160V140C638.945 126 628.945 116 614.945 116ZM814.016 120H760.016V132H798.016C810.016 132 818.016 140 818.016 150C818.016 160 810.016 168 798.016 168H760.016V180H816.016C830.016 180 838.016 188 838.016 200C838.016 212 830.016 220 816.016 220H738.016C724.016 220 716.016 212 716.016 200V100C716.016 88 724.016 80 738.016 80H814.016C828.016 80 836.016 88 836.016 100C836.016 112 828.016 120 814.016 120ZM858.93 164V136C858.93 102 884.93 76 925.93 76C960.93 76 980.93 96 980.93 110C980.93 121 973.93 128 958.93 128C942.93 128 940.93 114 925.93 114C912.93 114 903.93 123 903.93 136V164C903.93 177 912.93 186 925.93 186C942.93 186 944.93 172 960.93 172C975.93 172 982.93 179 982.93 190C982.93 204 962.93 224 925.93 224C884.93 224 858.93 198 858.93 164ZM1039.91 120H1017.91C1003.91 120 995.914 112 995.914 100C995.914 88 1003.91 80 1017.91 80H1105.91C1119.91 80 1127.91 88 1127.91 100C1127.91 112 1119.91 120 1105.91 120H1083.91V202C1083.91 214 1075.91 222 1061.91 222C1047.91 222 1039.91 214 1039.91 202V120ZM1205.95 126H1207.95L1233.95 88C1233.95 88 1240.95 78 1251.95 78C1266.95 78 1274.95 86 1274.95 98C1274.95 106 1266.95 116 1266.95 116L1228.95 170V202C1228.95 214 1220.95 222 1206.95 222C1192.95 222 1184.95 214 1184.95 202V170L1146.95 116C1146.95 116 1138.95 106 1138.95 98C1138.95 86 1146.95 78 1161.95 78C1172.95 78 1179.95 88 1179.95 88L1205.95 126ZM1412.94 154H1436.94L1425.94 124H1423.94L1412.94 154ZM1403.94 190L1398.94 202C1393.94 214 1385.94 222 1374.94 222C1361.94 222 1352.94 213 1352.94 202C1352.94 196 1357.94 184 1357.94 184L1389.94 100C1395.94 85 1404.94 76 1424.94 76C1444.94 76 1454.14 85 1459.94 100L1491.94 184C1491.94 184 1496.94 196 1496.94 202C1496.94 213 1487.94 222 1474.94 222C1463.94 222 1455.94 214 1450.94 202L1445.94 190H1403.94ZM1646.88 140V160C1646.88 194 1620.88 220 1577.88 220H1542.88C1528.88 220 1520.88 212 1520.88 200V100C1520.88 88 1528.88 80 1542.88 80H1577.88C1620.88 80 1646.88 106 1646.88 140ZM1577.88 116H1564.88V184H1577.88C1591.88 184 1601.88 174 1601.88 160V140C1601.88 126 1591.88 116 1577.88 116ZM1745.95 176C1745.95 164 1671.95 170 1671.95 122C1671.95 96 1691.95 76 1731.95 76C1766.95 76 1786.95 96 1786.95 110C1786.95 121 1779.95 128 1764.95 128C1748.95 128 1746.95 114 1731.95 114C1721.95 114 1717.95 118 1717.95 122C1717.95 136 1791.95 130 1791.95 176C1791.95 202 1769.95 224 1725.95 224C1688.95 224 1668.95 204 1668.95 190C1668.95 179 1675.95 172 1690.95 172C1706.95 172 1708.95 186 1725.95 186C1740.95 186 1745.95 181 1745.95 176Z" fill="#ED1C99"/>
<rect y="170" width="150" height="50" rx="25" fill="#ED1C99"/>
<rect x="170" width="150" height="300" rx="40" fill="#ED1C99"/>
<rect width="150" height="150" rx="40" fill="#ED1C99"/>
</svg>
